<?xml version="1.0" standalone="no"?>
<!DOCTYPE svg PUBLIC "-//W3C//DTD SVG 20010904//EN"
 "http://www.w3.org/TR/2001/REC-SVG-20010904/DTD/svg10.dtd">
<svg version="1.0" xmlns="http://www.w3.org/2000/svg"
 width="128.000000pt" height="128.000000pt" viewBox="0 0 128.000000 128.000000"
 preserveAspectRatio="xMidYMid meet">
<metadata>
Created by potrace 1.14, written by Peter Selinger 2001-2017
</metadata>
<g transform="translate(0.000000,128.000000) scale(0.100000,-0.100000)"
fill="#000000" stroke="none">
<path d="M218 852 l-28 -3 0 -210 0 -209 35 0 35 0 0 90 0 90 93 0 93 0 2 30
2 30 -95 0 -95 0 0 60 c0 33 3 60 8 61 4 0 57 2 117 2 l110 2 3 28 c2 15 0 27
-5 27 -55 3 -255 4 -275 2z"/>
<path d="M591 850 c-5 -3 -8 -99 -8 -213 l0 -208 119 2 c103 1 122 4 151 23
69 46 73 129 9 172 -30 21 -31 23 -12 29 11 3 27 19 35 35 29 57 -2 136 -61
152 -32 10 -222 16 -233 8z m191 -59 c25 -1 47 -41 41 -72 -6 -35 -40 -49
-113 -49 l-60 0 0 58 c0 32 2 61 4 63 4 4 49 4 128 0z m-6 -180 c29 -1 52 -22
58 -53 8 -44 -14 -62 -86 -68 -98 -8 -98 -8 -98 60 0 64 4 67 75 63 17 -1 39
-2 51 -2z"/>
<path d="M1009 830 c-1 -30 -1 -382 0 -392 1 -5 16 -8 34 -8 l34 0 0 209 0
209 -34 4 c-30 4 -33 1 -34 -22z"/>
</g>
</svg>
